<svg width="25" height="24" viewBox="0 0 25 24" fill="none" xmlns="http://www.w3.org/2000/svg">
<g clip-path="url(#clip0_6001_591)">
<path d="M22.6262 5.92231C22.6264 5.92377 22.6236 5.9325 22.6181 5.94867C22.6152 5.95724 22.6136 5.96629 22.6133 5.97567C22.6105 6.05408 22.6031 6.13184 22.5913 6.20912C22.5834 6.26054 22.5785 6.29869 22.5767 6.32343C22.5735 6.36708 22.5678 6.40507 22.5599 6.43741C22.5463 6.49319 22.5033 6.52649 22.4726 6.55866C22.4569 6.57499 22.4409 6.58922 22.4244 6.60167C22.3939 6.62479 22.3628 6.64904 22.3313 6.67475C22.2985 6.70142 22.267 6.72535 22.2369 6.74653C22.1391 6.81459 22.0359 6.8901 21.9274 6.97271C21.8668 7.01879 21.7787 7.08087 21.6629 7.15864C21.4646 7.29186 21.3409 7.37496 21.2919 7.40794C21.2736 7.42022 21.1996 7.46501 21.0701 7.54213C21.0348 7.56314 21.0004 7.58562 20.9668 7.60954C20.931 7.63509 20.8961 7.65708 20.8622 7.67567C20.818 7.69976 20.7781 7.72336 20.7422 7.74664C20.7045 7.77106 20.6779 7.78722 20.6622 7.79482C20.6298 7.81051 20.6027 7.82538 20.5805 7.83945C20.5403 7.86483 20.4923 7.8928 20.4362 7.92303C20.3872 7.94938 20.3385 7.97638 20.2905 8.00387C19.9557 8.19577 19.6354 8.36699 19.33 8.51751C19.2797 8.54224 19.249 8.57328 19.238 8.61047C19.2365 8.61516 19.2192 8.65671 19.1863 8.73512C19.1643 8.78734 19.1457 8.8284 19.1306 8.85799C19.0074 9.10099 18.8497 9.32022 18.6573 9.516C18.5827 9.59183 18.5021 9.66329 18.4152 9.73006C18.1503 9.93426 17.8827 10.0958 17.6125 10.2144C17.4433 10.2888 17.2429 10.3622 17.0113 10.4345C16.7977 10.5011 16.549 10.5637 16.2653 10.622C16.2401 10.6272 16.2092 10.6404 16.1783 10.6461C16.1031 10.66 16.0192 10.6799 15.9266 10.7059C15.886 10.7174 15.8299 10.7214 15.7884 10.7341C15.731 10.7514 15.6642 10.7696 15.5877 10.7892C15.5478 10.7994 15.4812 10.8183 15.3881 10.8461C15.2259 10.8944 15.1101 10.9245 15.0408 10.9363C15.0196 10.9399 15.0013 10.9271 14.9863 10.8982C14.8752 10.6839 14.7726 10.4987 14.6783 10.342C14.4285 9.9273 14.1715 9.57566 13.9071 9.28724C13.6741 9.03292 13.4379 8.80852 13.1982 8.6137C12.9985 8.45154 12.8205 8.31751 12.6638 8.21178C12.4766 8.08519 12.3112 7.98172 12.1675 7.90137C12.0936 7.85998 11.9845 7.80129 11.8401 7.72547C11.7269 7.66613 11.6301 7.6186 11.5494 7.58287C11.1831 7.42071 10.8067 7.28523 10.4205 7.17642C10.3948 7.16914 10.3839 7.1533 10.388 7.12873C10.3897 7.11789 10.3907 7.11207 10.3909 7.11094C10.4061 6.9116 10.4098 6.76609 10.4022 6.67426C10.398 6.62366 10.3954 6.58308 10.3943 6.55284C10.3925 6.49577 10.3899 6.45552 10.3868 6.43207C10.3692 6.29934 10.3511 6.1928 10.3323 6.11277C10.3243 6.07865 10.3047 6.00509 10.2735 5.89208C10.2478 5.79912 10.2245 5.72717 10.2035 5.67625C10.0743 5.36341 9.91313 5.10166 9.71993 4.89132C9.56132 4.71849 9.40353 4.57525 9.24654 4.46127C9.13935 4.3835 8.99449 4.29135 8.81164 4.18464C8.757 4.15263 8.7051 4.12466 8.65579 4.10073C8.62006 4.08327 8.58594 4.06565 8.55377 4.04803C8.50058 4.01877 8.46663 4.00114 8.45192 3.995C8.40907 3.97705 8.35669 3.95248 8.29509 3.92095C8.25807 3.90204 8.20536 3.87795 8.1373 3.84901C7.70337 3.66454 7.41235 3.54425 7.26426 3.48831C7.22594 3.47376 7.2004 3.4639 7.18779 3.45873C7.08108 3.41475 6.98618 3.37708 6.90292 3.34555C6.86913 3.33278 6.81578 3.31112 6.74286 3.2804C6.68062 3.25421 6.6271 3.23351 6.58248 3.21832C6.56276 3.21153 6.54368 3.20377 6.52525 3.19504C6.51183 3.18873 6.49259 3.18146 6.46753 3.17337C6.43859 3.16399 6.4103 3.15332 6.38281 3.1412C6.34385 3.1239 6.3162 3.11226 6.29971 3.10612C6.20837 3.07168 6.14968 3.04872 6.12381 3.03724C5.97976 2.97306 5.83474 2.91114 5.68891 2.85116C5.64962 2.83499 5.62101 2.82157 5.60274 2.8109C5.58398 2.79991 5.56458 2.79053 5.5447 2.78293C5.52546 2.77565 5.50557 2.76628 5.4852 2.7548C5.40679 2.71066 5.29685 2.64664 5.15555 2.56273C5.14536 2.55675 5.13469 2.55335 5.12353 2.55254C5.09767 2.55077 5.08392 2.58229 5.10268 2.60008C5.17947 2.67234 5.25999 2.7514 5.34406 2.83741C5.35327 2.84679 5.37106 2.86231 5.39741 2.88381C5.41633 2.89917 5.43346 2.91583 5.44915 2.93361C5.49361 2.98405 5.5185 3.01202 5.52384 3.01736C5.55941 3.05244 5.59853 3.08882 5.62796 3.12875C5.64299 3.14912 5.66304 3.17095 5.68794 3.19407C5.69618 3.20166 5.71591 3.22317 5.74711 3.25841C5.8522 3.3766 5.9665 3.51661 6.09002 3.67844C6.14143 3.74586 6.20335 3.83397 6.27578 3.94262C6.42501 4.16605 6.51264 4.29733 6.53899 4.33662C6.58685 4.40808 6.62856 4.47372 6.66396 4.53354C6.70859 4.60871 6.7351 4.65366 6.74351 4.66805C6.76824 4.71057 6.79266 4.756 6.81642 4.80466C6.90615 4.98768 6.95562 5.0884 6.96484 5.10699C7.01771 5.21354 7.06184 5.31652 7.09741 5.41595C7.1291 5.50503 7.15852 5.57649 7.18569 5.63033C7.25327 5.76468 7.30209 5.8591 7.33216 5.91391C7.43256 6.09676 7.5564 6.26991 7.70369 6.43321C7.84548 6.59051 7.99729 6.73101 8.15913 6.85485C8.17739 6.86892 8.17513 6.87651 8.15201 6.87765C7.96431 6.88638 7.80053 6.8964 7.66052 6.90756C7.63692 6.90933 7.61299 6.90174 7.58858 6.88444C7.55511 6.86083 7.45148 6.78533 7.27768 6.65809C7.23839 6.62932 7.19361 6.57208 7.14349 6.48656C7.11229 6.43304 7.08577 6.38276 7.06411 6.33555C7.0384 6.27945 7.01706 6.22642 7.00025 6.17614C6.89403 5.85878 6.79136 5.57617 6.69242 5.32832C6.63842 5.19284 6.57601 5.05105 6.52751 4.93449C6.51636 4.90781 6.5094 4.88388 6.50649 4.86238C6.50181 4.82843 6.49792 4.79755 6.47998 4.76586C6.44878 4.71105 6.41935 4.66093 6.39171 4.61583C6.36309 4.5691 6.33512 4.51898 6.30764 4.46531C6.26156 4.37558 6.20982 4.28472 6.15243 4.1924C5.94532 3.85952 5.71009 3.52857 5.44656 3.1994C5.39305 3.13263 5.34018 3.07556 5.28828 3.02787C5.20405 2.95059 5.1604 2.91033 5.15716 2.90726C5.07649 2.82771 5.00212 2.75318 4.93421 2.68382C4.86421 2.6122 4.81571 2.52926 4.78903 2.43501C4.75524 2.31521 4.84044 2.21174 4.95491 2.18247C5.06339 2.15483 5.17349 2.15159 5.28521 2.17277C5.36831 2.18878 5.46321 2.21626 5.56992 2.25555C5.78381 2.33412 5.9956 2.41286 6.20513 2.49159C6.31071 2.5312 6.65232 2.64227 7.23031 2.82448C7.31276 2.85051 7.41639 2.87993 7.54137 2.91259C7.6471 2.94024 7.77628 2.97645 7.92874 3.0214C8.03852 3.05389 8.14231 3.08235 8.24045 3.10676C8.47746 3.16593 8.71545 3.22042 8.9544 3.27005C8.96717 3.27264 9.0527 3.29123 9.21081 3.32583C9.27257 3.33925 9.35875 3.35558 9.46933 3.37466C9.60627 3.39826 9.74321 3.42203 9.88014 3.44579C9.94142 3.45646 9.98976 3.46341 10.025 3.46681C10.0806 3.47198 10.149 3.47845 10.2185 3.49025C10.2575 3.49688 10.3063 3.50464 10.365 3.5137C10.4114 3.52081 10.4606 3.52582 10.5125 3.52889C10.7173 3.54102 10.8358 3.54749 10.8678 3.54862C10.8895 3.54926 10.9152 3.53455 10.932 3.51758C11.0878 3.36027 11.2597 3.21751 11.4474 3.0893C11.4867 3.0623 11.5522 3.01994 11.6438 2.96206C11.7203 2.91389 11.7811 2.87864 11.8264 2.85649C11.9117 2.81462 11.9866 2.76838 12.0765 2.72667C12.3308 2.60848 12.5832 2.51067 12.8339 2.43339C13.2328 2.31036 13.6413 2.22774 14.0597 2.18538C14.2471 2.16647 14.4563 2.15321 14.687 2.14577C14.773 2.14302 14.8502 2.14383 14.9184 2.1482C14.9629 2.15111 15.0143 2.15305 15.0726 2.15386C15.1135 2.1545 15.1651 2.15757 15.2272 2.16291C15.3454 2.17309 15.4162 2.17892 15.4396 2.18069C15.507 2.18603 15.5777 2.19395 15.6513 2.20478C15.9052 2.24213 16.1276 2.28417 16.3182 2.33089C16.8591 2.46346 17.3647 2.66119 17.8347 2.92423C18.1144 3.08089 18.3816 3.26617 18.6364 3.48039C18.6584 3.49898 18.6941 3.50513 18.7434 3.49882C18.7767 3.49462 18.8379 3.4867 18.9268 3.47506C18.9745 3.46875 19.0353 3.45905 19.1095 3.44563C19.1581 3.43674 19.2645 3.41815 19.4284 3.38985C19.8305 3.32033 20.2625 3.23772 20.7244 3.14201C21.1283 3.05842 21.5923 2.94509 22.1163 2.80233C22.6721 2.65084 23.1988 2.47963 23.6965 2.28885C23.7746 2.25894 23.8318 2.23728 23.8683 2.22386C23.9332 2.20009 23.9914 2.18183 24.0429 2.16889C24.1547 2.1406 24.3144 2.09614 24.5218 2.03551C24.5858 2.01676 24.6337 2.00576 24.6654 2.00269C24.7398 1.99542 24.8206 2.00188 24.8921 2.03034C24.9608 2.0575 24.9907 2.13009 24.9983 2.19977C25.0023 2.23696 24.997 2.27851 24.9826 2.32426C24.9574 2.40461 24.9126 2.4827 24.8482 2.5582C24.8122 2.60072 24.769 2.64761 24.7189 2.69886C24.7184 2.69934 24.6374 2.77468 24.4761 2.92488C24.4479 2.95107 24.4046 2.99876 24.3462 3.0678C24.3062 3.11517 24.2628 3.16238 24.2161 3.20926C23.8835 3.54312 23.5967 3.89266 23.3555 4.25756C23.1877 4.51139 23.0435 4.78753 22.9227 5.08581C22.8986 5.14531 22.8676 5.21337 22.8296 5.29001C22.7856 5.37877 22.7504 5.46672 22.7238 5.55418C22.6975 5.641 22.6668 5.74852 22.6314 5.87672C22.6264 5.89483 22.6246 5.91003 22.6262 5.92231ZM20.1091 5.63357C20.149 5.65733 20.1773 5.68385 20.1941 5.71311C20.2784 5.85975 20.3414 6.01997 20.3836 6.1936C20.42 6.3438 20.4488 6.51016 20.4696 6.69269C20.475 6.73812 20.4772 6.79131 20.4764 6.8521C20.4758 6.90303 20.4795 6.95622 20.4874 7.01151C20.4898 7.02768 20.4895 7.04611 20.4868 7.06664C20.4761 7.14538 20.47 7.21053 20.4683 7.26178C20.4672 7.29525 20.4635 7.33001 20.457 7.36606C20.4506 7.40276 20.4447 7.43736 20.4397 7.4697C20.4381 7.48037 20.4384 7.48845 20.4409 7.49411C20.4452 7.50478 20.4549 7.50963 20.4698 7.50882C20.4746 7.5085 20.4795 7.50704 20.4839 7.50478C20.6783 7.39808 20.8576 7.28668 21.0221 7.17044C21.1656 7.06907 21.2746 6.99066 21.3491 6.93536C21.5393 6.79406 21.7126 6.63611 21.8692 6.46166C21.8709 6.45988 21.9022 6.42415 21.9635 6.35415C21.9873 6.32698 22.0162 6.28883 22.0502 6.23968C22.1255 6.13039 22.1913 6.02595 22.2474 5.92652C22.3022 5.82968 22.3497 5.72911 22.39 5.625C22.4477 5.47545 22.4766 5.40043 22.4768 5.40011C22.5845 5.15016 22.6682 4.96795 22.7282 4.85349C22.8343 4.65091 22.9343 4.47372 23.0283 4.32223C23.1275 4.16233 23.2325 4.00729 23.3432 3.85725C23.4874 3.66163 23.6362 3.47085 23.7894 3.28509C23.8323 3.23319 23.9052 3.15575 24.008 3.05276C24.0219 3.03886 24.0305 3.01816 24.0452 3.00329C24.1246 2.9231 24.2481 2.80104 24.4159 2.6371C24.4226 2.63047 24.4251 2.62077 24.4226 2.61188C24.4211 2.60687 24.415 2.60735 24.4043 2.61317C24.3534 2.6413 24.3003 2.6704 24.2452 2.70048C24.2439 2.70128 24.192 2.73216 24.0897 2.79311C24.0407 2.82238 23.9899 2.84728 23.9375 2.86781C23.8636 2.89691 23.8119 2.91938 23.7826 2.93539C23.7578 2.94881 23.6876 2.98357 23.5722 3.03951C23.5474 3.05147 23.5211 3.06246 23.4928 3.07265C23.4633 3.08332 23.4363 3.09334 23.4116 3.10256C23.3995 3.10709 23.36 3.12438 23.2929 3.15429C23.2608 3.16868 23.2294 3.18081 23.1985 3.19035C23.1586 3.2028 23.1271 3.21395 23.1036 3.22398C22.9843 3.27523 22.8865 3.31403 22.81 3.3407C22.7481 3.36221 22.6998 3.38064 22.6647 3.39567C22.6047 3.42154 22.5565 3.4403 22.52 3.45194C22.4238 3.48249 22.3273 3.51887 22.2304 3.5609C22.194 3.57675 22.1577 3.5913 22.1214 3.60456C22.0988 3.6128 22.0626 3.62751 22.0128 3.64853C21.9735 3.66518 21.9187 3.6862 21.8487 3.71142C21.7344 3.75265 21.638 3.79194 21.56 3.82945C21.4875 3.86421 21.4133 3.88555 21.3391 3.92273C21.2709 3.95684 21.217 3.98255 21.1774 3.99985C20.9868 4.08311 20.8331 4.15958 20.716 4.2291C20.5988 4.29862 20.5217 4.3468 20.4847 4.3738C20.387 4.44478 20.267 4.53903 20.1246 4.65673C20.0768 4.69634 20.009 4.75648 19.9216 4.83732C19.8954 4.86141 19.8493 4.90975 19.7833 4.98218C19.691 5.08355 19.6305 5.15453 19.6018 5.19494C19.552 5.26463 19.5174 5.34207 19.4744 5.41013C19.4425 5.46057 19.4141 5.51619 19.3887 5.57682C19.341 5.69112 19.2968 5.81561 19.2561 5.95061C19.2257 6.05133 19.2073 6.13087 19.201 6.18891C19.1971 6.22416 19.1918 6.26118 19.185 6.29998C19.174 6.36223 19.1682 6.39925 19.1673 6.41122C19.1643 6.45729 19.1612 6.49011 19.1583 6.50984C19.1544 6.53619 19.1521 6.56917 19.1517 6.60846C19.1509 6.67539 19.1507 6.75106 19.1512 6.83545C19.1515 6.9061 19.1559 6.98144 19.1641 7.06147C19.1688 7.1069 19.1741 7.1685 19.1801 7.24643C19.1848 7.30802 19.1926 7.36914 19.2032 7.43009C19.2226 7.54002 19.2354 7.62151 19.2414 7.67454C19.2492 7.74228 19.2587 7.8097 19.2702 7.87647C19.2776 7.92044 19.2854 7.98786 19.2933 8.07872C19.2952 8.0999 19.3167 8.11364 19.3366 8.10621C19.5039 8.04477 19.6464 7.95132 19.7642 7.82603C19.7925 7.79612 19.8173 7.76653 19.8386 7.73743C19.8834 7.6768 19.9064 7.64576 19.9072 7.64447C19.9507 7.58578 19.9979 7.50332 20.0486 7.39743C20.0913 7.30835 20.1199 7.21635 20.1345 7.12113C20.1371 7.10383 20.1419 7.0841 20.1489 7.06195C20.1618 7.02008 20.1679 6.96463 20.1726 6.9365C20.1911 6.82607 20.2004 6.7627 20.2009 6.74637C20.205 6.607 20.1924 6.46279 20.1631 6.31389C20.1291 6.14106 20.0798 5.96192 20.015 5.77648C20.0043 5.74577 19.9985 5.72443 19.9975 5.71262C19.9953 5.68288 20.0076 5.66186 20.0342 5.64957C20.0405 5.64666 20.0606 5.64068 20.0941 5.63146C20.0994 5.63001 20.1044 5.63082 20.1091 5.63357ZM10.9689 6.08577C10.9291 6.15513 10.9271 6.2295 10.9415 6.31114C10.9606 6.41914 10.9828 6.51048 11.0081 6.58534C11.1396 6.97223 11.3651 7.28959 11.6847 7.53711C11.9635 7.75279 12.2797 7.8776 12.6333 7.91139C12.7353 7.92109 12.8427 7.91947 12.9552 7.9067C13.166 7.88261 13.3644 7.81827 13.5503 7.71366C13.5956 7.68812 13.629 7.65643 13.6507 7.6186C13.6724 7.5806 13.6827 7.53566 13.6817 7.48376C13.6775 7.27035 13.6323 7.0668 13.5459 6.87296C13.4999 6.76949 13.4468 6.67636 13.3865 6.59326C13.178 6.30581 12.9099 6.0966 12.5827 5.96597C12.2071 5.81626 11.8193 5.78295 11.4191 5.86621C11.3418 5.88222 11.2518 5.90954 11.1491 5.94786C11.0715 5.97696 11.0085 6.01641 10.9689 6.08577ZM15.4256 7.6131C15.4655 7.68343 15.5581 7.72627 15.6391 7.76281C15.8884 7.87534 16.1473 7.92206 16.4155 7.90298C16.61 7.88908 16.7932 7.84607 16.9652 7.77381C17.3614 7.60728 17.6706 7.33874 17.8925 6.96818C18.0199 6.75558 18.1032 6.52698 18.1422 6.28236C18.1538 6.20912 18.1431 6.14349 18.1102 6.08544C18.077 6.0274 18.0261 5.98472 17.9571 5.95724C17.727 5.86589 17.4879 5.82062 17.24 5.82159C16.808 5.82305 16.4194 5.95174 16.0737 6.20735C15.9238 6.31842 15.7932 6.4539 15.682 6.61396C15.5285 6.8348 15.4366 7.08119 15.406 7.35297C15.396 7.4414 15.3855 7.54277 15.4256 7.6131Z" fill="#D0F9EF" fill-opacity="0.153"/>
<path d="M9.35011 6.95298L9.10873 6.92226C9.08868 6.91968 9.07349 6.90319 9.07268 6.88314C9.07058 6.83221 9.07122 6.77126 9.07462 6.70061C9.07785 6.63545 9.08399 6.57515 9.09289 6.5197C9.11827 6.36417 9.14802 6.23046 9.18229 6.11842C9.19361 6.08156 9.21948 6.00606 9.25973 5.89208C9.27315 5.85408 9.28787 5.81771 9.30419 5.78279C9.34526 5.695 9.36143 5.64245 9.41446 5.59524C9.43062 5.58085 9.44922 5.57584 9.47023 5.58053C9.52375 5.59233 9.57306 5.61804 9.55398 5.6819C9.53571 5.74382 9.51777 5.79944 9.50031 5.84875C9.47395 5.92328 9.45585 5.9789 9.44566 6.01543C9.40136 6.17468 9.37194 6.31243 9.35755 6.42867C9.34429 6.53473 9.34461 6.68202 9.35836 6.87037C9.35852 6.8715 9.36062 6.88201 9.36466 6.90189C9.36806 6.91822 9.3666 6.93326 9.36062 6.94716C9.35884 6.9512 9.35448 6.95363 9.35011 6.95298Z" fill="#D0F9EF" fill-opacity="0.153"/>
<path d="M13.6504 7.61856C13.6287 7.65639 13.5952 7.68808 13.55 7.71362C13.364 7.81823 13.1657 7.88257 12.9549 7.90666C12.8423 7.91943 12.735 7.92105 12.633 7.91135C12.2794 7.87756 11.9631 7.75275 11.6844 7.53708C11.3648 7.28955 11.1393 6.97219 11.0078 6.5853C10.9824 6.51045 10.9603 6.4191 10.9412 6.3111C10.9268 6.22946 10.9288 6.15509 10.9685 6.08573C11.0081 6.01637 11.0712 5.97692 11.1488 5.94782C11.2515 5.9095 11.3415 5.88218 11.4188 5.86618C11.8189 5.78291 12.2068 5.81622 12.5824 5.96593C12.9096 6.09656 13.1776 6.30577 13.3862 6.59322C13.4465 6.67632 13.4995 6.76945 13.5456 6.87292C13.6319 7.06677 13.6772 7.27031 13.6814 7.48372C13.6824 7.53562 13.672 7.58057 13.6504 7.61856Z" fill="white" fill-opacity="0.51"/>
<path d="M18.1101 6.08543C18.143 6.14347 18.1537 6.20911 18.1421 6.28235C18.1031 6.52696 18.0198 6.75557 17.8924 6.96817C17.6705 7.33873 17.3613 7.60727 16.9651 7.77379C16.7931 7.84606 16.6099 7.88907 16.4154 7.90297C16.1472 7.92205 15.8883 7.87532 15.639 7.7628C15.558 7.72626 15.4654 7.68342 15.4255 7.61309C15.3854 7.54276 15.3959 7.44139 15.4059 7.35295C15.4365 7.08118 15.5284 6.83479 15.6819 6.61394C15.7931 6.45389 15.9237 6.3184 16.0736 6.20733C16.4193 5.95173 16.8079 5.82303 17.2399 5.82158C17.4878 5.82061 17.7269 5.86588 17.957 5.95722C18.026 5.98471 18.0769 6.02739 18.1101 6.08543Z" fill="white" fill-opacity="0.51"/>
<path d="M2.07778 11.4341C2.11771 11.4257 2.16039 11.4097 2.20049 11.4089C2.3987 11.4043 2.52691 11.5553 2.52739 11.7471C2.52917 12.5488 2.52933 13.294 2.5282 13.9826C2.5282 13.9898 2.52303 13.996 2.51591 13.9973C2.36442 14.0249 2.24867 14.1066 2.16848 14.2422C2.09265 14.3704 2.04851 14.5111 2.0359 14.6642C2.03542 14.6708 2.02992 14.6758 2.02329 14.6758C1.6419 14.676 1.41798 14.6761 1.35138 14.676C1.17952 14.6755 1.06715 14.5953 1.01412 14.4354C1.00944 14.421 1.00539 14.3903 1.00232 14.3432C1.00054 14.3175 0.999735 14.2868 0.999735 14.2508C0.999735 13.4269 0.999734 12.603 0.999573 11.7791C0.999573 11.5744 1.1294 11.4119 1.34572 11.4297C1.37789 11.4323 1.40974 11.4342 1.4411 11.4357C1.44741 11.436 1.45064 11.433 1.45064 11.4266V7.52885C1.45064 7.52335 1.44595 7.51899 1.44046 7.51947C1.28428 7.53127 1.17127 7.44995 1.10789 7.30735C1.05309 7.18384 1.04339 7.05304 1.07895 6.91513C1.11016 6.7942 1.19083 6.67877 1.31516 6.64578C1.34281 6.63835 1.38791 6.63463 1.45048 6.63479C2.70248 6.63544 3.42113 6.63528 3.6064 6.63447C3.75935 6.63366 3.85845 6.70399 3.92393 6.84076C3.97955 6.95668 3.99248 7.08473 3.9629 7.2249C3.93687 7.34745 3.85813 7.47162 3.73235 7.50767C3.70357 7.51591 3.66234 7.52012 3.60851 7.52028C3.0551 7.52206 2.54469 7.52222 2.07729 7.52076C2.07228 7.52076 2.06824 7.52481 2.06824 7.52982V11.4265C2.06824 11.4315 2.07293 11.4352 2.07778 11.4341Z" fill="white"/>
<path d="M8.74553 7.41697C8.74634 7.41697 8.74715 7.41697 8.7478 7.41697C9.54695 7.41163 10.3204 7.54792 11.0681 7.82584C12.2904 8.27998 13.3539 9.11487 14.0725 10.2062C14.2657 10.4998 14.4386 10.8097 14.5907 11.1361C14.598 11.1518 14.6023 11.1714 14.6035 11.1948C14.6036 11.2001 14.602 11.205 14.5985 11.209C14.5685 11.2427 14.509 11.2436 14.463 11.2436C12.557 11.2433 10.6512 11.2431 8.74521 11.243C6.83923 11.2428 4.93326 11.2427 3.02729 11.2425C2.98121 11.2425 2.92171 11.2415 2.8918 11.2079C2.88825 11.2039 2.88663 11.199 2.88679 11.1937C2.88808 11.1702 2.89229 11.1507 2.89956 11.135C3.05186 10.8086 3.22469 10.4986 3.41805 10.2052C4.13685 9.1139 5.20051 8.27934 6.42276 7.82536C7.1705 7.5476 7.94411 7.41147 8.74327 7.41697C8.74391 7.41697 8.74472 7.41697 8.74553 7.41697Z" fill="white" fill-opacity="0.396"/>
<path d="M19.5924 13.0556C19.593 13.0565 19.5937 13.0577 19.5945 13.0589C19.5953 13.0601 19.5956 13.0612 19.5958 13.0625C19.6409 13.5281 19.6587 13.9528 19.6495 14.3367C19.6461 14.4763 19.6331 14.6923 19.611 14.9848C19.603 15.0871 19.5922 15.1943 19.5783 15.3064C19.5491 15.5416 19.512 15.7783 19.4674 16.0161C19.4609 16.0504 19.4488 16.0625 19.4158 16.0761C19.1289 16.194 18.8471 16.3088 18.5704 16.4205C18.0432 16.6334 17.5006 16.8159 16.9427 16.9681C16.7999 17.007 16.6952 17.0337 16.6281 17.0483C16.5901 17.0567 16.5548 17.0656 16.5224 17.0749C16.4709 17.09 16.4359 17.0987 16.4169 17.1011C16.3608 17.1087 16.2968 17.1213 16.2249 17.1388C16.1626 17.1542 16.0934 17.1666 16.0174 17.1761C16.0047 17.1779 15.9922 17.1706 15.9874 17.1587C15.9791 17.1385 15.9736 17.1183 15.9707 17.0982C15.9027 16.6394 15.8605 16.3584 15.8443 16.2551C15.8428 16.2457 15.8289 16.1466 15.8029 15.9579C15.796 15.9075 15.7851 15.836 15.7704 15.7437C15.7555 15.6504 15.7449 15.5785 15.7384 15.528C15.7285 15.4512 15.7166 15.3701 15.7025 15.2846C15.6852 15.1791 15.6734 15.0977 15.6673 15.0403C15.6595 14.9677 15.6471 14.9121 15.6351 14.8317C15.4749 13.7606 15.3813 13.127 15.3543 12.9306C15.347 12.8777 15.3365 12.8077 15.3227 12.7206C15.2794 12.4456 15.2267 12.0908 15.1648 11.6566C15.1611 11.6306 15.1712 11.6125 15.1955 11.6023C15.2421 11.5824 15.2822 11.5665 15.3159 11.5546C15.5248 11.4807 15.7544 11.4107 16.0045 11.3446C16.0561 11.3308 16.2603 11.2765 16.6171 11.1816C16.9286 11.0987 17.215 11.0131 17.4761 10.9252C17.7575 10.8303 18.0201 10.7208 18.2637 10.5968C18.3768 10.5393 18.5033 10.4639 18.6434 10.3708C18.6692 10.3535 18.7007 10.3302 18.7378 10.3006C18.7761 10.2701 18.8075 10.2471 18.832 10.2318C18.8497 10.2208 18.8634 10.2245 18.8733 10.2427C18.8873 10.2689 18.9049 10.3094 18.9264 10.3638C19.2086 11.0812 19.4095 11.8149 19.5293 12.5649C19.5544 12.721 19.5749 12.883 19.5911 13.0509C19.5912 13.053 19.5916 13.0544 19.5924 13.0556Z" fill="#D0F9EF" fill-opacity="0.153"/>
<path d="M9.56661 14.051C9.56192 14.0534 9.55885 14.0582 9.55885 14.0634V20.9674C9.55885 20.9724 9.55642 20.9748 9.55141 20.9748H8.00452C7.98819 20.9748 7.97994 20.9666 7.97994 20.9502V14.1022C7.97994 14.0898 7.97299 14.0783 7.96183 14.0726C7.46226 13.8156 6.93601 13.6225 6.38325 13.4937C6.01609 13.4081 5.62969 13.3456 5.22388 13.3063C4.98412 13.2832 4.75212 13.2644 4.52804 13.2502C4.42489 13.2436 4.31738 13.2397 4.20534 13.2385C4.05918 13.2371 3.63107 13.2368 2.921 13.2373C2.89335 13.2374 2.86749 13.2361 2.84356 13.2335C2.83046 13.2321 2.82028 13.2213 2.81995 13.208C2.81171 12.911 2.81106 12.5681 2.81834 12.1789C2.8185 12.1734 2.82125 12.1702 2.82658 12.1694C2.85665 12.165 2.88624 12.1628 2.9155 12.1628C3.22543 12.1623 7.01006 12.1618 14.2691 12.1613C14.4079 12.1613 14.5463 12.1624 14.6842 12.1647C14.6886 12.1649 14.6909 12.1671 14.6909 12.1715V13.2261C14.6909 13.2318 14.6863 13.2364 14.6807 13.2364C14.0151 13.2373 13.5855 13.2376 13.392 13.2374C13.2557 13.2373 13.1561 13.239 13.0929 13.2428C12.5758 13.2728 12.0512 13.3176 11.5521 13.4026C10.8548 13.5215 10.1929 13.7375 9.56661 14.051Z" fill="white"/>
<path d="M10.4032 20.3227C10.4027 20.3177 10.4032 20.3129 10.4043 20.308C10.4169 20.1223 10.4374 19.9375 10.4661 19.7533C10.5775 19.0337 10.7734 18.3419 11.0536 17.6776C11.3278 17.0278 11.6922 16.4106 12.152 15.8822C12.6799 15.2756 13.3392 14.7995 14.0906 14.5274C14.3377 14.438 14.5926 14.3778 14.8555 14.3466C14.9118 14.34 14.9643 14.3377 15.013 14.3398C15.0186 14.34 15.0236 14.3418 15.0283 14.3452C15.0506 14.3612 15.0657 14.3832 15.0734 14.4111C15.0804 14.4356 15.0861 14.4635 15.0906 14.495C15.1297 14.7671 15.3507 16.2313 15.7538 18.8877C15.7606 18.9328 15.7643 18.9644 15.7648 18.9825C15.7651 18.9956 15.7589 19.0064 15.7462 19.0153C14.9709 19.5508 14.1424 20.0075 13.2606 20.3856C12.9659 20.5119 12.6537 20.627 12.324 20.7307C11.9932 20.8346 11.6631 20.9132 11.3338 20.9665C11.2563 20.979 11.1705 20.99 11.0764 20.9994C10.9781 21.0091 10.8917 21.0158 10.8175 21.0197C10.7189 21.0249 10.5991 21.0226 10.4583 21.0129C10.4303 21.0112 10.4125 21.0013 10.4053 20.9837C10.4011 20.9736 10.3982 20.953 10.3965 20.9216C10.386 20.7219 10.3883 20.5224 10.4032 20.3227Z" fill="white" fill-opacity="0.396"/>
<path d="M1.9612 19.2814C1.87212 19.2231 1.80017 19.1747 1.74504 19.1367C1.70963 19.1123 1.69492 19.0811 1.70058 19.0435C2.13516 16.1868 2.36377 14.6846 2.38624 14.5368C2.39109 14.5053 2.40321 14.4796 2.42245 14.4597C2.43684 14.4448 2.45721 14.438 2.48357 14.4391C2.52415 14.4411 2.5526 14.4429 2.56893 14.4446C2.72495 14.4606 2.86108 14.4828 2.977 14.5111C3.99199 14.7583 4.86519 15.3929 5.50913 16.2226C5.70686 16.4774 5.87646 16.7304 6.01808 16.9816C6.36407 17.5955 6.62727 18.2508 6.8077 18.9474C6.84214 19.0802 6.868 19.1846 6.88563 19.2611C6.96743 19.6159 7.02321 19.9648 7.05296 20.3078C7.07527 20.5653 7.08125 20.8064 7.07074 21.0309C7.06961 21.0544 7.06234 21.0778 7.04859 21.1012C7.04601 21.1058 7.04213 21.1085 7.03695 21.1097C7.02612 21.1121 7.01464 21.1139 7.00236 21.1151C6.92265 21.1232 6.81595 21.1255 6.68224 21.1219C6.5951 21.1195 6.45897 21.1077 6.27401 21.0865C6.16359 21.0738 6.05721 21.0574 5.95455 21.0374C5.59822 20.9675 5.25466 20.8757 4.92387 20.7617C4.54346 20.6306 4.1729 20.4809 3.8122 20.3129C3.17165 20.0145 2.5547 19.6706 1.9612 19.2814Z" fill="white" fill-opacity="0.396"/>
<path d="M10.4038 20.3081C10.4027 20.3129 10.4022 20.3178 10.4027 20.3228C10.4019 20.3175 10.4024 20.3126 10.4038 20.3081Z" fill="#D0F9EF" fill-opacity="0.153"/>
</g>
<defs>
<clipPath id="clip0_6001_591">
<rect width="24" height="24" fill="white" transform="translate(0.5)"/>
</clipPath>
</defs>
</svg>
